<svg width="55" height="56" viewBox="0 0 55 56" fill="none" xmlns="http://www.w3.org/2000/svg">
<rect width="55" height="55" rx="10" fill="#E3143A"/>
<path d="M0 10C0 4.47715 4.47715 0 10 0H25V55H10C4.47715 55 0 50.5228 0 45V10Z" fill="#0F1B5F"/>
<path d="M28.4347 51V36.4545H33.8892C35.0066 36.4545 35.9441 36.6629 36.7017 37.0795C37.464 37.4962 38.0393 38.0691 38.4276 38.7983C38.8205 39.5227 39.017 40.3466 39.017 41.2699C39.017 42.2027 38.8205 43.0312 38.4276 43.7557C38.0346 44.4801 37.4545 45.0507 36.6875 45.4673C35.9205 45.8793 34.9759 46.0852 33.8537 46.0852H30.2386V43.919H33.4986C34.152 43.919 34.687 43.8054 35.1037 43.5781C35.5204 43.3509 35.8281 43.0384 36.027 42.6406C36.2306 42.2429 36.3324 41.786 36.3324 41.2699C36.3324 40.7538 36.2306 40.2992 36.027 39.9062C35.8281 39.5133 35.518 39.2079 35.0966 38.9901C34.6799 38.7675 34.1425 38.6562 33.4844 38.6562H31.0696V51H28.4347ZM41.3058 51V36.4545H46.8739C47.9251 36.4545 48.7987 36.6203 49.4947 36.9517C50.1954 37.2784 50.7186 37.7259 51.0643 38.294C51.4147 38.8622 51.5898 39.5062 51.5898 40.2259C51.5898 40.8177 51.4762 41.3243 51.2489 41.7457C51.0217 42.1624 50.7163 42.5009 50.3327 42.7614C49.9492 43.0218 49.5207 43.2088 49.0472 43.3224V43.4645C49.5633 43.4929 50.0581 43.6515 50.5316 43.9403C51.0098 44.2244 51.4004 44.6269 51.7035 45.1477C52.0065 45.6686 52.158 46.2983 52.158 47.0369C52.158 47.7898 51.9757 48.4669 51.6112 49.0682C51.2466 49.6648 50.6973 50.1359 49.9634 50.4815C49.2295 50.8272 48.3062 51 47.1935 51H41.3058ZM43.9407 48.7983H46.7745C47.7309 48.7983 48.4199 48.616 48.8413 48.2514C49.2674 47.8821 49.4805 47.4086 49.4805 46.831C49.4805 46.4001 49.3739 46.0118 49.1609 45.6662C48.9478 45.3158 48.6448 45.0412 48.2518 44.8423C47.8588 44.6387 47.39 44.5369 46.8455 44.5369H43.9407V48.7983ZM43.9407 42.6406H46.5472C47.0018 42.6406 47.4113 42.5578 47.7759 42.392C48.1405 42.2216 48.427 41.9825 48.6353 41.6747C48.8484 41.3622 48.9549 40.9929 48.9549 40.5668C48.9549 40.0033 48.756 39.5393 48.3583 39.1747C47.9653 38.8101 47.3806 38.6278 46.604 38.6278H43.9407V42.6406Z" fill="white"/>
</svg>
